<mxfile host="app.diagrams.net" modified="2022-03-09T14:15:08.527Z" agent="5.0 (Windows NT 10.0; Win64; x64) AppleWebKit/537.36 (KHTML, like Gecko) Chrome/96.0.4664.174 YaBrowser/22.1.4.837 Yowser/2.5 Safari/537.36" etag="cUlfXScuqpDLiJMRmw0H" version="16.6.4" type="github">
  <diagram id="4V-uYYI3TJKT6J6POKun" name="Page-1">
    <mxGraphModel dx="1582" dy="914" grid="1" gridSize="10" guides="1" tooltips="1" connect="1" arrows="1" fold="1" page="1" pageScale="1" pageWidth="1100" pageHeight="850" math="0" shadow="0">
      <root>
        <mxCell id="0" />
        <mxCell id="1" parent="0" />
        <mxCell id="wcl_Z-L9woV-AxZ-uq4W-2" value="Сервер" style="verticalAlign=top;align=left;spacingTop=8;spacingLeft=2;spacingRight=12;shape=cube;size=10;direction=south;fontStyle=4;html=1;" vertex="1" parent="1">
          <mxGeometry x="450" y="90" width="780" height="470" as="geometry" />
        </mxCell>
        <mxCell id="wcl_Z-L9woV-AxZ-uq4W-39" style="edgeStyle=orthogonalEdgeStyle;rounded=0;orthogonalLoop=1;jettySize=auto;html=1;exitX=0;exitY=0;exitDx=0;exitDy=25;exitPerimeter=0;" edge="1" parent="1" source="wcl_Z-L9woV-AxZ-uq4W-4" target="wcl_Z-L9woV-AxZ-uq4W-22">
          <mxGeometry relative="1" as="geometry" />
        </mxCell>
        <mxCell id="wcl_Z-L9woV-AxZ-uq4W-45" style="edgeStyle=orthogonalEdgeStyle;rounded=0;orthogonalLoop=1;jettySize=auto;html=1;exitX=0;exitY=0;exitDx=0;exitDy=25;exitPerimeter=0;entryX=0;entryY=0;entryDx=0;entryDy=50.25;entryPerimeter=0;" edge="1" parent="1" source="wcl_Z-L9woV-AxZ-uq4W-4" target="wcl_Z-L9woV-AxZ-uq4W-43">
          <mxGeometry relative="1" as="geometry" />
        </mxCell>
        <mxCell id="wcl_Z-L9woV-AxZ-uq4W-4" value="API" style="verticalAlign=top;align=left;spacingTop=8;spacingLeft=2;spacingRight=12;shape=cube;size=10;direction=south;fontStyle=4;html=1;" vertex="1" parent="1">
          <mxGeometry x="690" y="320" width="60" height="40" as="geometry" />
        </mxCell>
        <mxCell id="wcl_Z-L9woV-AxZ-uq4W-15" style="edgeStyle=orthogonalEdgeStyle;rounded=0;orthogonalLoop=1;jettySize=auto;html=1;exitX=0;exitY=0;exitDx=15;exitDy=0;exitPerimeter=0;" edge="1" parent="1" source="wcl_Z-L9woV-AxZ-uq4W-8" target="wcl_Z-L9woV-AxZ-uq4W-13">
          <mxGeometry relative="1" as="geometry" />
        </mxCell>
        <mxCell id="wcl_Z-L9woV-AxZ-uq4W-8" value="Веб-приложение" style="verticalAlign=top;align=left;spacingTop=8;spacingLeft=2;spacingRight=12;shape=cube;size=10;direction=south;fontStyle=4;html=1;" vertex="1" parent="1">
          <mxGeometry x="460" y="320" width="110" height="40" as="geometry" />
        </mxCell>
        <mxCell id="wcl_Z-L9woV-AxZ-uq4W-9" value="" style="group" vertex="1" connectable="0" parent="1">
          <mxGeometry x="200" y="290" width="170" height="105" as="geometry" />
        </mxCell>
        <mxCell id="wcl_Z-L9woV-AxZ-uq4W-6" value="" style="rounded=0;whiteSpace=wrap;html=1;" vertex="1" parent="wcl_Z-L9woV-AxZ-uq4W-9">
          <mxGeometry width="170" height="105" as="geometry" />
        </mxCell>
        <mxCell id="wcl_Z-L9woV-AxZ-uq4W-5" value="Google Chrome" style="verticalAlign=top;align=left;spacingTop=8;spacingLeft=2;spacingRight=12;shape=cube;size=10;direction=south;fontStyle=4;html=1;" vertex="1" parent="wcl_Z-L9woV-AxZ-uq4W-9">
          <mxGeometry x="30" y="32.5" width="110" height="40" as="geometry" />
        </mxCell>
        <mxCell id="wcl_Z-L9woV-AxZ-uq4W-7" value="Клиент" style="text;html=1;strokeColor=none;fillColor=none;align=center;verticalAlign=middle;whiteSpace=wrap;rounded=0;" vertex="1" parent="wcl_Z-L9woV-AxZ-uq4W-9">
          <mxGeometry width="60" height="30" as="geometry" />
        </mxCell>
        <mxCell id="wcl_Z-L9woV-AxZ-uq4W-10" style="edgeStyle=orthogonalEdgeStyle;rounded=0;orthogonalLoop=1;jettySize=auto;html=1;exitX=0;exitY=0;exitDx=15;exitDy=0;exitPerimeter=0;" edge="1" parent="1" source="wcl_Z-L9woV-AxZ-uq4W-5" target="wcl_Z-L9woV-AxZ-uq4W-11">
          <mxGeometry relative="1" as="geometry">
            <mxPoint x="400" y="338" as="targetPoint" />
          </mxGeometry>
        </mxCell>
        <mxCell id="wcl_Z-L9woV-AxZ-uq4W-12" style="edgeStyle=orthogonalEdgeStyle;rounded=0;orthogonalLoop=1;jettySize=auto;html=1;exitX=1;exitY=0.5;exitDx=0;exitDy=0;" edge="1" parent="1" source="wcl_Z-L9woV-AxZ-uq4W-11" target="wcl_Z-L9woV-AxZ-uq4W-8">
          <mxGeometry relative="1" as="geometry" />
        </mxCell>
        <mxCell id="wcl_Z-L9woV-AxZ-uq4W-11" value="HTTP" style="ellipse;whiteSpace=wrap;html=1;aspect=fixed;rounded=0;" vertex="1" parent="1">
          <mxGeometry x="390" y="320" width="40" height="40" as="geometry" />
        </mxCell>
        <mxCell id="wcl_Z-L9woV-AxZ-uq4W-17" style="edgeStyle=orthogonalEdgeStyle;rounded=0;orthogonalLoop=1;jettySize=auto;html=1;exitX=1;exitY=0.5;exitDx=0;exitDy=0;" edge="1" parent="1" source="wcl_Z-L9woV-AxZ-uq4W-13" target="wcl_Z-L9woV-AxZ-uq4W-4">
          <mxGeometry relative="1" as="geometry" />
        </mxCell>
        <mxCell id="wcl_Z-L9woV-AxZ-uq4W-13" value="HTTP" style="ellipse;whiteSpace=wrap;html=1;aspect=fixed;rounded=0;" vertex="1" parent="1">
          <mxGeometry x="610" y="322.5" width="40" height="40" as="geometry" />
        </mxCell>
        <mxCell id="wcl_Z-L9woV-AxZ-uq4W-46" style="edgeStyle=orthogonalEdgeStyle;rounded=0;orthogonalLoop=1;jettySize=auto;html=1;exitX=0;exitY=0;exitDx=0;exitDy=45;exitPerimeter=0;entryX=1;entryY=0.5;entryDx=0;entryDy=0;entryPerimeter=0;" edge="1" parent="1" source="wcl_Z-L9woV-AxZ-uq4W-19" target="wcl_Z-L9woV-AxZ-uq4W-43">
          <mxGeometry relative="1" as="geometry" />
        </mxCell>
        <mxCell id="wcl_Z-L9woV-AxZ-uq4W-19" value="Position Service" style="verticalAlign=top;align=left;spacingTop=8;spacingLeft=2;spacingRight=12;shape=cube;size=10;direction=south;fontStyle=4;html=1;" vertex="1" parent="1">
          <mxGeometry x="837.5" y="243.75" width="100" height="40" as="geometry" />
        </mxCell>
        <mxCell id="wcl_Z-L9woV-AxZ-uq4W-38" style="edgeStyle=orthogonalEdgeStyle;rounded=0;orthogonalLoop=1;jettySize=auto;html=1;exitX=1;exitY=0.5;exitDx=0;exitDy=0;" edge="1" parent="1" source="wcl_Z-L9woV-AxZ-uq4W-22" target="wcl_Z-L9woV-AxZ-uq4W-19">
          <mxGeometry relative="1" as="geometry" />
        </mxCell>
        <mxCell id="wcl_Z-L9woV-AxZ-uq4W-22" value="HTTP/2" style="ellipse;whiteSpace=wrap;html=1;aspect=fixed;rounded=0;" vertex="1" parent="1">
          <mxGeometry x="740" y="240" width="47.5" height="47.5" as="geometry" />
        </mxCell>
        <mxCell id="wcl_Z-L9woV-AxZ-uq4W-34" style="edgeStyle=orthogonalEdgeStyle;rounded=0;orthogonalLoop=1;jettySize=auto;html=1;exitX=0;exitY=0;exitDx=0;exitDy=45;exitPerimeter=0;" edge="1" parent="1" source="wcl_Z-L9woV-AxZ-uq4W-27" target="wcl_Z-L9woV-AxZ-uq4W-30">
          <mxGeometry relative="1" as="geometry" />
        </mxCell>
        <mxCell id="wcl_Z-L9woV-AxZ-uq4W-27" value="Price Generator&lt;br&gt;Service" style="verticalAlign=top;align=left;spacingTop=8;spacingLeft=2;spacingRight=12;shape=cube;size=10;direction=south;fontStyle=4;html=1;" vertex="1" parent="1">
          <mxGeometry x="1070" y="470" width="100" height="57.5" as="geometry" />
        </mxCell>
        <mxCell id="wcl_Z-L9woV-AxZ-uq4W-36" style="edgeStyle=orthogonalEdgeStyle;rounded=0;orthogonalLoop=1;jettySize=auto;html=1;exitX=0;exitY=0;exitDx=0;exitDy=45;exitPerimeter=0;" edge="1" parent="1" source="wcl_Z-L9woV-AxZ-uq4W-28" target="wcl_Z-L9woV-AxZ-uq4W-35">
          <mxGeometry relative="1" as="geometry" />
        </mxCell>
        <mxCell id="wcl_Z-L9woV-AxZ-uq4W-41" style="edgeStyle=orthogonalEdgeStyle;rounded=0;orthogonalLoop=1;jettySize=auto;html=1;exitX=0;exitY=0;exitDx=27.5;exitDy=100;exitPerimeter=0;" edge="1" parent="1" source="wcl_Z-L9woV-AxZ-uq4W-28" target="wcl_Z-L9woV-AxZ-uq4W-40">
          <mxGeometry relative="1" as="geometry" />
        </mxCell>
        <mxCell id="wcl_Z-L9woV-AxZ-uq4W-44" style="edgeStyle=orthogonalEdgeStyle;rounded=0;orthogonalLoop=1;jettySize=auto;html=1;exitX=0;exitY=0;exitDx=17.5;exitDy=0;exitPerimeter=0;" edge="1" parent="1" source="wcl_Z-L9woV-AxZ-uq4W-28" target="wcl_Z-L9woV-AxZ-uq4W-30">
          <mxGeometry relative="1" as="geometry" />
        </mxCell>
        <mxCell id="wcl_Z-L9woV-AxZ-uq4W-28" value="Price Sender&lt;br&gt;Service" style="verticalAlign=top;align=left;spacingTop=8;spacingLeft=2;spacingRight=12;shape=cube;size=10;direction=south;fontStyle=4;html=1;" vertex="1" parent="1">
          <mxGeometry x="900" y="340" width="100" height="45" as="geometry" />
        </mxCell>
        <mxCell id="wcl_Z-L9woV-AxZ-uq4W-30" value="Redis" style="shape=cylinder3;whiteSpace=wrap;html=1;boundedLbl=1;backgroundOutline=1;size=15;rounded=0;" vertex="1" parent="1">
          <mxGeometry x="1095" y="340" width="75" height="77" as="geometry" />
        </mxCell>
        <mxCell id="wcl_Z-L9woV-AxZ-uq4W-37" style="edgeStyle=orthogonalEdgeStyle;rounded=0;orthogonalLoop=1;jettySize=auto;html=1;exitX=0;exitY=0.5;exitDx=0;exitDy=0;" edge="1" parent="1" source="wcl_Z-L9woV-AxZ-uq4W-35" target="wcl_Z-L9woV-AxZ-uq4W-19">
          <mxGeometry relative="1" as="geometry" />
        </mxCell>
        <mxCell id="wcl_Z-L9woV-AxZ-uq4W-35" value="HTTP/2" style="ellipse;whiteSpace=wrap;html=1;aspect=fixed;rounded=0;" vertex="1" parent="1">
          <mxGeometry x="966.25" y="250" width="47.5" height="47.5" as="geometry" />
        </mxCell>
        <mxCell id="wcl_Z-L9woV-AxZ-uq4W-42" style="edgeStyle=orthogonalEdgeStyle;rounded=0;orthogonalLoop=1;jettySize=auto;html=1;exitX=0;exitY=0.5;exitDx=0;exitDy=0;" edge="1" parent="1" source="wcl_Z-L9woV-AxZ-uq4W-40" target="wcl_Z-L9woV-AxZ-uq4W-4">
          <mxGeometry relative="1" as="geometry" />
        </mxCell>
        <mxCell id="wcl_Z-L9woV-AxZ-uq4W-40" value="HTTP/2" style="ellipse;whiteSpace=wrap;html=1;aspect=fixed;rounded=0;" vertex="1" parent="1">
          <mxGeometry x="810" y="322.5" width="47.5" height="47.5" as="geometry" />
        </mxCell>
        <mxCell id="wcl_Z-L9woV-AxZ-uq4W-43" value="PostgreSQL" style="shape=cylinder3;whiteSpace=wrap;html=1;boundedLbl=1;backgroundOutline=1;size=15;rounded=0;" vertex="1" parent="1">
          <mxGeometry x="720" y="120" width="75" height="77" as="geometry" />
        </mxCell>
      </root>
    </mxGraphModel>
  </diagram>
</mxfile>
